<?xml version="1.0" encoding="UTF-8"?>
<svg id="Layer_2" data-name="Layer 2" xmlns="http://www.w3.org/2000/svg" viewBox="0 0 382.74 290">
  <defs>
    <style>
      .cls-1 {
        fill: #589140;
      }
    </style>
  </defs>
  <g id="Layer_1-2" data-name="Layer 1">
    <g>
      <path class="cls-1" d="M321.32,1.02c.83-.72,1.84-1.17,2.94-.69,1.38.61,8.74,7.73,5.68,9.69-44.87,44.34-89.75,88.57-134.3,133.36l-1.12,1.92c42.27,42.16,84.73,84.12,126.94,126.34,1.43,1.44,9.74,8.69,9.84,9.98.12,1.57-7.72,9.49-9.86,6.87l-136.19-135.46L49.06,288.5c-1.87,2.97-9.28-5.74-9.28-6.86,0-2.32,6.8-7.53,8.47-9.19,42.1-42.1,84.1-84.19,126.62-125.81l1.12-1.92L71.48,40.01c-7.65-5.39-13.21-13.1-19.62-19.64-2.5-2.55-10.86-8.37-11.75-11.57-.66-2.37,5.73-6.74,7.3-8.69l3.63,2.65,134.22,133.42L321.32,1.02Z"/>
      <path class="cls-1" d="M207.57,79.58c26.49-26.11,53.28-52.08,79.29-78.56.86-.71,1.81-1.18,2.94-.69.94.42,7.57,6.94,6.89,8.44l-111.44,109.82L74.33,7.69c1.73-1.46,6.77-8.39,8.75-7.37l101.76,101.05c.95.43,2.58-.95,3.26-1.6,6.67-6.34,12.86-13.67,19.47-20.19Z"/>
      <path class="cls-1" d="M121.03,165.33c6.92-6.89,14.22-13.29,20.54-20.71L40.56,43.68c-2.95-1.94,5.77-9.28,6.86-9.28,1.51,0,16.66,15.97,19.21,18.48,13.32,13.07,26.57,26.59,39.69,39.64,15.15,15.08,36.6,32.64,49.7,48.86,2.29,2.84,3.12,3.44,0,6.46-33.2,32.49-65.17,66.37-99.02,98.11-2.39,2.24-7.29,10.03-10.75,8.48-.94-.42-6.47-6.33-6.47-7.24,0-2.1,25.59-26.39,29.26-30.07,17.15-17.23,34.68-34.54,51.99-51.79Z"/>
      <path class="cls-1" d="M236.66,238.25c-17.14-16.89-34.61-33.49-51.41-50.75-1.14,1.05-1.63,2.58-2.77,3.63-33.24,30.42-63.56,64.47-96.17,95.36-6.07,5.75-7.4.09-11.96-4.2l110.26-110.74,112.08,109.71c.87,1.69-5.66,7.65-7.45,7.91-.65.09-1.22.14-1.79-.27l-50.79-50.63Z"/>
      <path class="cls-1" d="M322.45,34.53c2.63-.68,9.43,6.27,8.68,7.92l-102.19,102.16,101,100.93c2.97,2.76-4.45,9.34-6.86,9.35l-110.23-109.51,109.59-110.84Z"/>
      <path class="cls-1" d="M64.37,188.01c12.75-12.74,25.34-26.69,38.32-39.01,1.19-1.13,4.64-2.79,4.37-4.28L40.18,77.68c-1.64-2.13,6.06-8.74,7.22-8.78l76.58,75.71-75.38,76.17c-2.04,1.01-9.7-5.76-8.48-8.48,7.78-8.39,16.17-16.22,24.25-24.3Z"/>
      <path class="cls-1" d="M184.63,206.03c1.16-.33,2.17-.19,3.07.65l73.28,72.57c3.9,2.56-4.37,10.06-6.68,9.84-1.06-.1-2.14-1.14-2.95-1.83l-66.09-65.31c-16.73,16.38-32.92,33.32-49.66,49.69-1.35,1.32-3.03,2.18-4.45,3.56-2.62,2.55-12,14.86-15.44,13.97-1.05-.27-8.65-7.4-6.24-9.15l75.17-74Z"/>
      <path class="cls-1" d="M322.45,68.97c2.16-.56,10.04,6.36,7.86,9.51l-66.91,66.13,66.85,66.98c3.49,1.87-6.28,9.43-7.18,9.36l-76.55-76.33,75.92-75.65Z"/>
      <path class="cls-1" d="M197.95,72.37c-.68.67-1.01,1.78-1.83,2.55-1.31,1.25-9.09,8.54-9.68,8.81-.88.41-1.51.62-2.37,0L109.46,9.2c-2.21-2.53,5.87-9.96,8.06-8.87l67.74,67.74L254.59.34c1.49,2.42,8.25,6.13,6.82,9.23-20.92,21.17-42.19,41.99-63.46,62.8Z"/>
      <path class="cls-1" d="M63.33,118.29c7.18,7.03,18.28,15.86,24.17,23.5.71.92,2.1,2.29,1.87,3.51l-42.56,41.28c-1.94-.19-8.02-6.64-7.45-7.91l33.3-34.06-32.09-32.02c-2.69-2.33,5.76-9.55,7.46-9.14,3.91.96,12.08,11.67,15.3,14.83Z"/>
      <path class="cls-1" d="M282.07,142.85l40.6-39.94c1.43-.65,9.96,6.6,7.63,9.23l-32.45,32.47c9.06,10.07,20.41,19.11,29.25,29.24,1.08,1.23,4.68,5.19,4.04,6.42-.82,1.59-7.03,7.54-9.23,6.04l-40.17-40.08-.59-1.49.91-1.89Z"/>
      <path class="cls-1" d="M185.4,239.69l42.38,41.56c.84,1.62-5.98,8.35-7.86,7.89-6.27-1.53-26.93-28.8-34.66-32.77l-33.27,32.51c-2.38,1.1-10.46-6.33-8.04-8.88l41.46-40.32Z"/>
      <path class="cls-1" d="M194.99,41.36c-1.24,1.17-8.02,7.68-8.55,7.92-.88.41-1.51.62-2.37,0L143.54,7.19l7.26-7.19,34.46,33.61c8.09-7.63,15.5-16.05,23.63-23.64,1.53-1.42,9.77-9.31,10.44-9.65,1.31-.68,7.92,5.7,8.44,6.85.36.8-.2,1.25-.54,1.87l-32.23,32.33Z"/>
    </g>
  </g>
</svg>
