<?xml version="1.0" encoding="UTF-8"?>
<svg xmlns="http://www.w3.org/2000/svg" xmlns:xlink="http://www.w3.org/1999/xlink" id="Layer_1" data-name="Layer 1" viewBox="0 0 514.5 144.34">
  <defs>
    <style>.cls-1{fill:none;}.cls-2{fill:#f7d30c;}.cls-3{fill:#fff;}.cls-4{clip-path:url(#clip-path);}.cls-5{fill:#94bde5;}.cls-6{clip-path:url(#clip-path-2);}.cls-7{clip-path:url(#clip-path-3);}.cls-8{fill:#3e62ad;}.cls-9{clip-path:url(#clip-path-4);}</style>
    <clipPath id="clip-path" transform="translate(-40.61 -348.63)">
      <rect class="cls-1" x="44.38" y="384.95" width="78.68" height="108.31"></rect>
    </clipPath>
    <clipPath id="clip-path-2" transform="translate(-40.61 -348.63)">
      <rect class="cls-1" x="122.98" y="384.95" width="78.68" height="108.31"></rect>
    </clipPath>
    <clipPath id="clip-path-3" transform="translate(-40.61 -348.63)">
      <rect class="cls-1" x="61.52" y="384.95" width="78.68" height="108.31"></rect>
    </clipPath>
    <clipPath id="clip-path-4" transform="translate(-40.61 -348.63)">
      <rect class="cls-1" x="140.11" y="384.95" width="78.68" height="108.31"></rect>
    </clipPath>
  </defs>
  <path class="cls-2" d="M191.07,408.25a59.62,59.62,0,1,1-59.62-59.62,59.62,59.62,0,0,1,59.62,59.62" transform="translate(-40.61 -348.63)"></path>
  <polygon class="cls-3" points="73.98 69.1 40.01 28.5 74.92 68.3 73.98 69.1"></polygon>
  <polygon class="cls-3" points="73.64 77.75 32.37 71.31 73.81 76.52 73.64 77.75"></polygon>
  <polygon class="cls-3" points="85.68 64.33 67.85 4.43 86.87 63.96 85.68 64.33"></polygon>
  <polygon class="cls-3" points="106.84 68.49 141.76 28.69 107.78 69.3 106.84 68.49"></polygon>
  <polygon class="cls-3" points="107.95 76.71 149.4 71.5 108.13 77.94 107.95 76.71"></polygon>
  <polygon class="cls-3" points="94.89 64.15 113.91 4.63 96.08 64.52 94.89 64.15"></polygon>
  <g class="cls-4">
    <path class="cls-5" d="M205.43,410.73s-71.75,73.14-158.22,5.17a.43.43,0,0,0-.58.63l74.47,75.58a2.93,2.93,0,0,0,4.15,0Z" transform="translate(-40.61 -348.63)"></path>
    <path class="cls-5" d="M139.63,420.1c0-10.35-7.37-18.74-16.45-18.74s-16.45,8.39-16.45,18.74,7.36,18.74,16.45,18.74,16.45-8.39,16.45-18.74" transform="translate(-40.61 -348.63)"></path>
  </g>
  <g class="cls-6">
    <path class="cls-5" d="M40.61,410.73s71.75,73.14,158.22,5.17a.43.43,0,0,1,.57.63l-74.46,75.58a2.94,2.94,0,0,1-4.16,0Z" transform="translate(-40.61 -348.63)"></path>
    <path class="cls-5" d="M106.41,420.1c0-10.35,7.37-18.74,16.45-18.74s16.45,8.39,16.45,18.74-7.36,18.74-16.45,18.74-16.45-8.39-16.45-18.74" transform="translate(-40.61 -348.63)"></path>
  </g>
  <g class="cls-7">
    <path class="cls-8" d="M222.57,410.73s-71.75,73.14-158.23,5.17a.43.43,0,0,0-.57.63l74.47,75.58a2.93,2.93,0,0,0,4.15,0Z" transform="translate(-40.61 -348.63)"></path>
    <path class="cls-8" d="M156.76,420.1c0-10.35-7.36-18.74-16.45-18.74s-16.45,8.39-16.45,18.74,7.37,18.74,16.45,18.74,16.45-8.39,16.45-18.74" transform="translate(-40.61 -348.63)"></path>
  </g>
  <g class="cls-9">
    <path class="cls-8" d="M57.75,410.73S129.49,483.87,216,415.9a.43.43,0,0,1,.57.63l-74.46,75.58a2.94,2.94,0,0,1-4.16,0Z" transform="translate(-40.61 -348.63)"></path>
    <path class="cls-8" d="M123.55,420.1c0-10.35,7.36-18.74,16.45-18.74s16.45,8.39,16.45,18.74-7.37,18.74-16.45,18.74-16.45-8.39-16.45-18.74" transform="translate(-40.61 -348.63)"></path>
  </g>
  <path class="cls-8" d="M502.49,404.21l-2.2.24c-1,.1-2,.28-3,.31a1.79,1.79,0,0,1-2-2c0-1.49.13-3,.13-4.46,0-1.17-.6-1.67-1.74-1.55-.66.07-1,.44-1.21,1.38-.25,1.11-.46,2.22-.71,3.32-.19.83-.4,1.64-.64,2.45a3.07,3.07,0,0,1-2.64,2.32c-2.1.34-4.19.73-6.3,1a7,7,0,0,1-2.18-.13,1.84,1.84,0,0,1-1.55-1.89c-.27-3.41,1.56-5.63,4.18-7.35a8.54,8.54,0,0,1,5.91-1.38,9.44,9.44,0,0,0,4-.4,14.74,14.74,0,0,1,5.07-.61,2,2,0,0,1,1.65.72.8.8,0,0,0,.66.13c1.43-.29,2.84-.73,4.29-.9,2-.24,3.52.84,3.65,2.55a9.35,9.35,0,0,1-.22,3c-1.23,4.87-2.55,9.71-3.83,14.55-.21.79-.18.84.64,1a6.5,6.5,0,0,0,1,.18,1.67,1.67,0,0,0,2-1.09c.56-1.39,1.89-1.74,3.54-1.63a13.06,13.06,0,0,1,1.49.3c-1.05,1.57-2,3.08-.28,4.65a3.43,3.43,0,0,1-4.51-.88c-.46-.81-1-.85-1.8-.8-1.9.14-3.81.26-5.71.23-1.11,0-1.42-.6-1.1-1.68q1.62-5.46,3.25-10.91C502.38,404.78,502.41,404.57,502.49,404.21ZM482.74,404c0,.3.06.5.09.69.2,1.08.69,1.43,1.77,1.29a2.25,2.25,0,0,0,2.11-1.74c.46-1.8.92-3.6,1.31-5.42.24-1.14-.42-1.69-1.55-1.33a2.24,2.24,0,0,0-.8.44A9.57,9.57,0,0,0,482.74,404Zm19.35-7.24c-.65.24-1.32.46-2,.73a.62.62,0,0,0-.3.46c-.11,1.21-.22,2.43-.28,3.64s.28,1.72,1.55,1.81c.6.05,1.47.17,1.71-.53a23.39,23.39,0,0,0,1-4A1.79,1.79,0,0,0,502.09,396.79Z" transform="translate(-40.61 -348.63)"></path>
  <path class="cls-8" d="M315.1,414.77c-.84,1.53-.84,2.84.29,4.06.29.31.15.59-.22.6a17.49,17.49,0,0,1-3.32-.09,2.59,2.59,0,0,1-1.49-1.09,1.88,1.88,0,0,0-1.85-.9c-1.44.08-2.88.18-4.32.23s-1.75-.35-1.62-1.65c.17-1.65.48-3.29.73-4.94.19-1.26.39-2.53.6-3.89h-.84c-1.36,0-2.71.07-4.06,0a3.19,3.19,0,0,1-2.71-2.94c-.4-4.25,2.65-7.12,6.28-7.68,1.12-.17,2.25-.18,3.38-.27,1.77-.16,3.53-.37,5.3-.46a14.55,14.55,0,0,1,3.43.15,3.43,3.43,0,0,1,2.84,3.08,6.73,6.73,0,0,1-2.66,6.76,7,7,0,0,1-4.07,1.06c-.64,0-1.29,0-1.93,0-.47,0-.72.12-.79.65-.36,2.68-.76,5.36-1.12,8a.92.92,0,0,0,.16.62,2,2,0,0,0,2.74-.13,2.35,2.35,0,0,1,2.36-1.41c.69,0,1.38,0,2.06,0A5.74,5.74,0,0,1,315.1,414.77Zm-6.81-8.92c1.61,0,2.87-.4,3.68-1.71a8.28,8.28,0,0,0,1.28-4.75,2.4,2.4,0,0,0-2.83-2.62c-.45,0-.68.17-.75.65-.24,1.57-.51,3.15-.77,4.72C308.7,403.34,308.51,404.53,308.29,405.85Zm-7.64-2.51c0,.47.07.91.13,1.35a1.4,1.4,0,0,0,1.24,1.36,4.6,4.6,0,0,0,1.57,0,.89.89,0,0,0,.55-.6c.42-2.49.8-5,1.19-7.49.09-.57-.13-.85-.7-.69a5.43,5.43,0,0,0-2,.87C301,399.45,300.89,401.44,300.65,403.34Z" transform="translate(-40.61 -348.63)"></path>
  <path class="cls-8" d="M367.57,405.25a25.56,25.56,0,0,1-.23,2.91,3,3,0,0,1-2.49,2.72c-1.39.23-2.81.37-4.21.56-1,.14-2.06.32-3.1.41-1.52.15-2.3-.52-2.25-2.06a35.65,35.65,0,0,1,.43-3.69c.15-1.12.34-2.24.48-3.36s-.52-1.56-1.45-1a4,4,0,0,0-1.4,1.52c-1.34,2.54-2.57,5.13-3.88,7.67a7.28,7.28,0,0,1-1.21,1.66,2.72,2.72,0,0,1-2.09.87,34,34,0,0,0-6.68.7,2.33,2.33,0,0,1-3-2.3,4.87,4.87,0,0,1,.1-1.32,12.19,12.19,0,0,1,2.71-5.93,10.2,10.2,0,0,1,6.19-3,96,96,0,0,1,12.78-1.24c1.82,0,3.63-.21,5.45-.24a5.65,5.65,0,0,1,2,.35,2.7,2.7,0,0,1,1.76,2.6c0,.71,0,1.42,0,2.13Zm-25,7.45a2.3,2.3,0,0,0,1.95-1.24c1.44-2.6,2.81-5.23,4.21-7.85a.6.6,0,0,0,.06-.19c.16-.62,0-.95-.65-1.05a3.76,3.76,0,0,0-3.32,1,17.87,17.87,0,0,0-4,6.44,2.52,2.52,0,0,0-.16.77A2,2,0,0,0,342.61,412.7Zm21.13-8.44h-.08c0-.36-.07-.71-.12-1.06a2.17,2.17,0,0,0-2-2c-.71-.08-1.3.17-1.36.61-.32,2.29-.64,4.57-.93,6.85a1.42,1.42,0,0,0,1,1.68c1.1.25,2.57,0,2.88-1.51S363.53,405.79,363.74,404.26Z" transform="translate(-40.61 -348.63)"></path>
  <path class="cls-8" d="M515.43,396.63a4,4,0,0,0,.33-4.43,4.15,4.15,0,0,1,4.77,1.27,1.08,1.08,0,0,0,.8.4c2.69-.05,5.37-.14,8.06-.26a.91.91,0,0,0,.62-.43,2.85,2.85,0,0,1,2.52-1.69l2.12-.16c-.57,1.65-1.22,3.14,0,4.61a3.88,3.88,0,0,1-4.38-1.1,1.25,1.25,0,0,0-1.22-.61c-.65,0-1.31,0-2.19,0,.53.87.94,1.56,1.37,2.25.15.24.36.46.49.71a3.54,3.54,0,0,0,2.23,1.77,4.37,4.37,0,0,1,3.3,4.54c0,2.17-.13,4.35-.18,6.52,0,2-.06,4,0,6a4.32,4.32,0,0,0,.41,1.19,5.43,5.43,0,0,1-.84.16c-1,.05-1.94.1-2.91.1a.94.94,0,0,1-1-.85,8.27,8.27,0,0,1-.16-1.85c.14-2.55.33-5.09.5-7.64.1-1.52.21-3.05.29-4.58a3.58,3.58,0,0,0-.09-1.18,2.3,2.3,0,0,0-1.67-1.9,2.8,2.8,0,0,0-2.92,1.18,9,9,0,0,0-1.39,3.79,48,48,0,0,0-.7,9.88,2.75,2.75,0,0,0,.83,2.22,7.45,7.45,0,0,1-1,.22c-.89.09-1.77.13-2.66.21a1,1,0,0,1-1.14-.69,3.34,3.34,0,0,1-.24-.9c-.08-3.76-.17-7.53,1.08-11.15a7.07,7.07,0,0,1,3.49-4.12c.47-.24.92-.52,1.48-.83-.36-.52-.7-1-1-1.49-.61-.93-1.26-1.83-1.78-2.81-.34-.64-.84-.43-1.31-.49s-.57.23-.69.57a1.91,1.91,0,0,1-1.49,1.39c-1.19.21-2.4.29-3.6.42Z" transform="translate(-40.61 -348.63)"></path>
  <path class="cls-8" d="M326.87,372.13c-1.07-.06-1.93-.17-2.78-.15-2.57.06-3.41-1.53-3-3.87.34-2.07,1.81-3.13,3.69-3.68.7-.2.95-.52.89-1.22s0-1.2,0-1.79-.22-1.2-.34-1.8l-.25-.06c.19-.11.37-.31.57-.32.91-.09,1.82-.15,2.73-.16a1.24,1.24,0,0,1,1.4,1.39c0,.93,0,1.87,0,2.8,0,.36.1.59.48.68a5.71,5.71,0,0,1,3.4,1.82c.09.11.37.12.56.11l5.91-.37.26,0c1-.05,1,0,1,1,0,1.15-.19,2.33.8,3.24-1.6.82-4.09.45-4.55-1.27-.11-.41-.24-.81-.33-1.22a.91.91,0,0,0-1-.82c-.62,0-1.25.05-1.86.13a.54.54,0,0,0-.35.41c.16,2.23-1,3.84-2.47,5.31-.57.58-1.18,1.13-1.78,1.69l.11.15h1.94a11.48,11.48,0,0,1,1.66,0,2,2,0,0,1,2,2.11c.14,1.44.21,2.88.3,4.31a3.25,3.25,0,0,0,1,2.63,2.14,2.14,0,0,1-.57.25c-1.08.07-2.17.15-3.25.16s-1.36-.4-1.39-1.39c0-1.25,0-2.49,0-3.74a5,5,0,0,0-.45-2,3.5,3.5,0,0,0-1.37-1.27,1.13,1.13,0,0,0-1.45.33c-1,1.12-2,2.22-2.89,3.39a4.13,4.13,0,0,0-.35,4.35,3.62,3.62,0,0,1-.67.2c-1,.07-1.95.14-2.92.16-.81,0-1.14-.29-1.23-1.08a6.44,6.44,0,0,1,.83-4,18.9,18.9,0,0,1,4-4.64Zm-1.82-3.32c0,.26,0,.57,0,.88a2,2,0,0,0,2.81,1.62c1-.59,2.46-3.13,1.76-4.89a2,2,0,0,0-1.74-1.36,2.1,2.1,0,0,0-2.1.86A4.4,4.4,0,0,0,325.05,368.81Z" transform="translate(-40.61 -348.63)"></path>
  <path class="cls-8" d="M273.26,417.3c-1.46,0-2.91.11-4.36.09-.21,0-.54-.39-.61-.66a6.37,6.37,0,0,1-.13-1.52c0-4.86,0-9.73,0-14.6a8.37,8.37,0,0,0-.8-3.12,1.71,1.71,0,0,0-3.19-.1,9.26,9.26,0,0,0-1.05,3.67c-.17,4.28-.17,8.56-.15,12.85a16,16,0,0,0,.52,2.87c-1,.16-2.13.39-3.29.5a1.21,1.21,0,0,1-1.37-1.08,4.11,4.11,0,0,1-.1-1c0-3.51,0-7,0-10.54,0-.59-.12-.81-.79-.73-1.47.17-1.59.15-1.69,1.65-.15,2.28-2.62,3.18-3.89,3-.1-1.09-.16-2.14-.29-3.18s0-1,.89-1.23c1.74-.35,3.47-.73,5.21-1.08a.79.79,0,0,0,.71-.79,7.74,7.74,0,0,1,6.58-6.74,7.9,7.9,0,0,1,4.49.64,4.55,4.55,0,0,1,2.56,3.81,16,16,0,0,1,.14,2.19q0,6.14,0,12.27a3.88,3.88,0,0,0,.68,2.58Z" transform="translate(-40.61 -348.63)"></path>
  <path class="cls-8" d="M381.7,416.78c-1,.16-2.16.39-3.29.5a1.27,1.27,0,0,1-1.41-1.21,10.87,10.87,0,0,1-.12-1.39v-9.87c0-.28,0-.56-.05-.81a1,1,0,0,0-.2-.07c-1.83.12-2.08-.05-2.25,1.95a2.62,2.62,0,0,1-1.8,2.28,18.7,18.7,0,0,1-2,.55c-.12-1.34-.22-2.5-.35-3.66,0-.49.11-.71.61-.81,1.78-.35,3.55-.78,5.34-1.1a1,1,0,0,0,.95-1,7.42,7.42,0,0,1,4.56-6,7.59,7.59,0,0,1,6.76.22,3.9,3.9,0,0,1,2.09,2.79,11.13,11.13,0,0,1,.29,2.37c0,4.22,0,8.44,0,12.67a4.73,4.73,0,0,0,.76,3c-.6.07-1.11.15-1.62.18-.86.05-1.73.09-2.59.09a.83.83,0,0,1-.91-.92c0-1,0-2.09,0-3.13,0-4.16.05-8.32,0-12.47a12.76,12.76,0,0,0-.78-3.34,1.79,1.79,0,0,0-3.32-.15,12.92,12.92,0,0,0-1,3.82c-.13,4.39-.08,8.79,0,13.19A12.83,12.83,0,0,0,381.7,416.78Z" transform="translate(-40.61 -348.63)"></path>
  <path class="cls-8" d="M416.65,468.21c-.13.25-.27.49-.39.73l-6.71,14c-.16.34-.23.72-.75.72s-.61-.36-.77-.69l-6.74-14.1a1.31,1.31,0,0,0-.46-.55c0,.23,0,.46,0,.68,0,3.74,0,7.47,0,11.21v.21c0,1.48.25,1.72,1.73,1.85.39,0,.78.06.66.57-.05.2-.31.5-.48.5-1.83,0-3.66,0-5.49,0a.71.71,0,0,1-.48-.5c0-.18.26-.39.43-.56s.18,0,.28,0c1.33-.12,1.53-.32,1.55-1.68.06-4.42.09-8.84.14-13.27v-.21c0-1.51-.21-1.68-1.71-1.87-.24,0-.62-.15-.67-.32-.15-.41-.08-.79.54-.78,1.9,0,3.81,0,5.71,0a1.09,1.09,0,0,1,.76.56q3,6.18,5.87,12.37c.11.23.24.45.44.81.2-.35.35-.58.47-.82q2.9-6.14,5.79-12.26a1,1,0,0,1,1.07-.69c1.69,0,3.38,0,5.07,0,.37,0,.71,0,.73.52s-.28.58-.68.58c-.21,0-.42.08-.64.09-.71,0-1,.42-1.07,1.07,0,.08,0,.15,0,.22,0,3-.07,6-.08,9,0,1.4,0,2.8,0,4.21,0,.35,0,.71,0,1.07.1,1,.19,1.13,1.22,1.28a3.47,3.47,0,0,0,.63.11c.46,0,.55.23.54.63s-.31.47-.64.46h-2c-1.72,0-3.43,0-5.14,0-.39,0-1,.28-1-.5s.55-.55.95-.58c1-.08,1.33-.34,1.34-1.35q.07-6.18.12-12.35c0-.12,0-.23,0-.35Z" transform="translate(-40.61 -348.63)"></path>
  <path class="cls-8" d="M429.11,468.14c0,.44-.05.66-.05.88,0,3.74,0,7.47,0,11.21v.21c0,1.49.25,1.73,1.73,1.86.38,0,.77,0,.66.56-.05.2-.3.51-.47.51-1.83,0-3.66,0-5.49,0-.18,0-.44-.29-.5-.49-.1-.36.08-.59.49-.59a3.39,3.39,0,0,0,.64-.05c.86-.14,1.12-.4,1.13-1.27q.09-7,.13-14.06c0-1.29-.24-1.5-1.68-1.65-.39,0-.76,0-.74-.59s.44-.52.81-.52c1.76,0,3.52,0,5.28,0a1,1,0,0,1,1.06.71c1.94,4.16,3.92,8.3,5.89,12.45.07.16.19.31.35.58.17-.29.32-.49.42-.71q2.93-6.15,5.82-12.32a1,1,0,0,1,1.08-.7c1.68,0,3.37,0,5.06,0,.37,0,.72-.05.74.51s-.26.6-.67.59a2,2,0,0,0-.42.05c-1.1.17-1.31.34-1.32,1.46q0,6.92,0,13.84c0,1.37.14,1.46,1.72,1.67.42.06.73.09.7.64s-.44.47-.78.47h-7.28c-.47,0-.84-.07-.72-.65a.74.74,0,0,1,.43-.42,2.15,2.15,0,0,1,.63,0c.9-.08,1.19-.35,1.21-1.25,0-4.19.08-8.37.12-12.56a2.64,2.64,0,0,0-.07-.39,8.91,8.91,0,0,0-.46.78c-2.26,4.72-4.51,9.44-6.79,14.15a1.34,1.34,0,0,1-.71.64c-.49.15-.61-.32-.77-.66q-3.37-7.08-6.76-14.15C429.45,468.66,429.33,468.5,429.11,468.14Z" transform="translate(-40.61 -348.63)"></path>
  <path class="cls-8" d="M472.64,434.24c-.12.22-.24.43-.35.65L465.56,449c-.17.36-.3.86-.82.71A1.46,1.46,0,0,1,464,449q-3.45-7.17-6.87-14.35a4.45,4.45,0,0,0-.3-.47c0,.43-.05.67-.05.91,0,3.71,0,7.42,0,11.14,0,.14,0,.28,0,.42,0,1.35.3,1.58,1.66,1.7a.93.93,0,0,1,.7.46c.14.42.06.7-.59.67-1.76-.07-3.52,0-5.28,0-.31,0-.59.07-.59-.37s-.06-.71.48-.78c1.65-.22,1.65-.23,1.84-1.88a8.72,8.72,0,0,0,.07-1.14c0-3.93,0-7.85,0-11.78,0-.36,0-.71,0-1.07a1,1,0,0,0-1.17-1.06,1.73,1.73,0,0,1-.83-.11.89.89,0,0,1-.36-.64c0-.15.3-.43.46-.44,2,0,3.95,0,5.93,0a.87.87,0,0,1,.59.48q3,6.36,6.06,12.75c.07.15.16.28.28.5a4.06,4.06,0,0,0,.34-.5q3-6.31,6-12.64a.91.91,0,0,1,1-.62c1.71,0,3.42,0,5.13,0,.32,0,.68-.09.72.44s-.22.63-.66.71c-1.73.3-1.75.31-1.75,2.07,0,4.28,0,8.56,0,12.84,0,.15,0,.29,0,.43.09,1.37.31,1.58,1.69,1.64.33,0,.68,0,.72.46s-.06.74-.7.73c-2.37,0-4.75,0-7.13,0-.31,0-.77-.06-.9-.26-.28-.41,0-.83.53-.9h.36c1.05,0,1.32-.29,1.34-1.32q.09-3,.13-6.06c0-2,0-3.95,0-5.93v-.75Z" transform="translate(-40.61 -348.63)"></path>
  <path class="cls-8" d="M252,360.77a7.49,7.49,0,0,1,3-.61c.57,0,.81.44.87.94.15,1.28.28,2.56.4,3.84.08.95.35,1.26,1.32,1.32.66,0,1.33,0,2,0a4,4,0,0,1,.74.18,2.75,2.75,0,0,1-.27.76c-.89,1.36-1.82,2.69-2.73,4-.06.09-.1.19-.24.42.33-.08.53-.11.72-.17,1-.29,2-.66,3-.87a6,6,0,0,1,2.11,0c1.36.21,2.08,1.19,2.27,2.82.31,2.71.64,5.41,1,8.12a.63.63,0,0,0,.08.32c.29.37.54.92.91,1,.53.16,1-.31,1.14-.82.77-2.17,3.53-2.19,5-1.54a16.1,16.1,0,0,0-1,2.35,2.31,2.31,0,0,0,.92,2.3,4.43,4.43,0,0,1-2.77.33,2.39,2.39,0,0,1-1.93-1.46,1,1,0,0,0-1.12-.62q-1.75.18-3.51.3a2.73,2.73,0,0,1-1.31-.05,1.73,1.73,0,0,1-.8-1,17.55,17.55,0,0,1-.39-2.63c-.2-2.05-.36-4.1-.57-6.16a1.89,1.89,0,0,0-1.29-1.77,2.07,2.07,0,0,0-2.43.56,12.83,12.83,0,0,0-3,6.73,18.35,18.35,0,0,0,0,2.46,2.52,2.52,0,0,0,.16.71c.34.92.35.94-.69,1a23.62,23.62,0,0,1-2.91.13c-.83,0-1-.31-1.06-1.16a12.24,12.24,0,0,1,1.29-5.79,35.66,35.66,0,0,1,5.18-8.19s.07-.07.08-.11c.13-.42.25-.84.37-1.27a5.08,5.08,0,0,0-1.3-.26,16.83,16.83,0,0,0-1.82.38c-.83.18-1,.06-1-.81,0-1.11,0-2.23,0-3.33A23.25,23.25,0,0,0,252,360.77Z" transform="translate(-40.61 -348.63)"></path>
  <path class="cls-8" d="M238.66,394.32c1-.17,2.1-.39,3.24-.54.61-.09.95.26,1,.89,0,1.15.11,2.31.12,3.46a.73.73,0,0,0,.65.82c3.18.8,4.74,2.8,4.83,6.07s.17,6.8.3,10.19a8.63,8.63,0,0,0,.44,1.71,5.67,5.67,0,0,1-1.18.43,12.12,12.12,0,0,1-2.48.23c-.75,0-1.12-.53-1.17-1.3s-.1-1.72-.11-2.59c-.07-3.42-.1-6.84-.19-10.26a7.16,7.16,0,0,0-.31-1.83,2.31,2.31,0,0,0-3.93-1.05,7.29,7.29,0,0,0-2.29,4.54,18.67,18.67,0,0,0-.28,3c0,2.26,0,4.53.14,6.79a16.32,16.32,0,0,0,.54,2.54c-.46.05-1,.13-1.45.18s-1,0-1.46.07c-1,.1-1.58-.22-1.7-1.22a42.61,42.61,0,0,1-.31-4.78,35.55,35.55,0,0,1,.28-5,8,8,0,0,1,3.83-5.89,2.61,2.61,0,0,0,.28-.17c1.74-1.09,1.76-1.1,1.61-3.17C239,396.42,238.8,395.47,238.66,394.32Z" transform="translate(-40.61 -348.63)"></path>
  <path class="cls-8" d="M437.88,391.54a16.76,16.76,0,0,0-.35,2.06,10.52,10.52,0,0,0,.24,1.56c0,.17-.09.5-.15.5a18.16,18.16,0,0,1-2.76,0,2.19,2.19,0,0,1-1.1-.8,1.14,1.14,0,0,0-1.11-.42c-.66.1-1.32.15-2,.21s-.8.25-.78.84,0,1.24-.05,1.86c0,.82.23,1.09,1,1.08.49,0,1-.06,1.47-.09,1.34-.09,1.74.47,1.48,1.51-.22.87-.21,1.8-.38,2.69-.11.59.1.71.61.68,1.75-.09,3.5-.2,5.26-.26,1.51-.06,1.47,0,1.57,1.47a21.68,21.68,0,0,0,.48,2.57,4.89,4.89,0,0,1-3.36-.53,3.06,3.06,0,0,1-.94-1.52c-.32-1-.52-1.25-1.58-1.22-.6,0-1.2.09-1.8.1s-.5.38-.54.69c-.2,1.45-.38,2.9-.56,4.35-.24,1.92-.46,3.84-.72,5.75a3.23,3.23,0,0,0,.41,2.63c-.79.07-1.48.14-2.17.19a9.78,9.78,0,0,1-1.53,0c-.87-.07-1.21-.43-1.14-1.3.1-1.23.28-2.46.45-3.69.36-2.64.74-5.27,1.11-7.91,0-.3,0-.53-.39-.51-.66,0-1.33,0-2,.05a.92.92,0,0,0-1,.83l-.06.26c-.34,2.26-1.84,2.81-3.57,3a9.68,9.68,0,0,1-1.08,0,3.53,3.53,0,0,0,.36-1,19.1,19.1,0,0,0,.05-2.62c0-.54.07-.73.6-.75,2.22-.11,4.43-.27,6.65-.37a.59.59,0,0,0,.64-.59c.15-1.12.32-2.24.45-3.37.08-.68-.23-1-1-1s-1.24.1-1.86.11c-.86,0-1.12-.22-1.15-1.08,0-.4,0-.8,0-1.2,0-.89-.35-1.24-1.21-1.14-1.41.16-2.82.37-4.23.55-.3,0-.61.05-1,.08a7.93,7.93,0,0,0,0-1.17,13.91,13.91,0,0,0-.33-2.33c-.13-.48-.06-.66.39-.74s.79-.18,1.18-.23c1.58-.19,2.57.66,2.81,2.41.12.85.27.95,1.11.87,2.67-.26,5.34-.5,8-.79.36,0,.92-.32,1-.59a2.17,2.17,0,0,1,2.24-1.72A20,20,0,0,1,437.88,391.54Z" transform="translate(-40.61 -348.63)"></path>
  <path class="cls-8" d="M304.17,464.17h3.71c.36,0,.79-.13.82.5s-.32.59-.72.6c-.24,0-.47.09-.71.1-.71,0-1,.41-1,1.11,0,4.37-.08,8.75-.11,13.12,0,.57.08,1.14.12,1.71a.84.84,0,0,0,.85.87,9.88,9.88,0,0,0,1.06.13c.42,0,.6.23.49.58s-.32.49-.49.49c-2.67,0-5.33,0-8,0-.39,0-.55-.16-.55-.56s.19-.51.56-.54c1.87-.18,1.85-.19,1.88-2.07s.08-3.57.13-5.35c0-.42,0-.77-.59-.76l-7.42.11c-.32,0-.63,0-.62.47l.12,6.42a1,1,0,0,0,1.06,1.07,2,2,0,0,1,.84.14.85.85,0,0,1,.4.58c0,.16-.27.4-.46.46a3,3,0,0,1-.85,0h-6.85c-.39,0-.77,0-.78-.55s.33-.53.71-.55c1.56-.11,1.72-.26,1.74-1.86,0-3.78.06-7.56.08-11.35,0-.9-.07-1.8-.08-2.7a.9.9,0,0,0-.88-1c-.33,0-.65-.12-1-.12s-.6-.18-.58-.61.26-.49.61-.49h7.71c.38,0,.64.07.65.54s-.25.52-.63.56c-1.68.18-1.78.29-1.81,2s0,3.1,0,4.64c0,.56.2.75.75.75,2.38,0,4.76,0,7.14,0,.47,0,.78-.08.76-.66-.05-1.78-.05-3.56-.13-5.34-.05-1-.16-1.1-1.17-1.27a3.86,3.86,0,0,1-.77-.1.92.92,0,0,1-.47-.52c-.1-.37.12-.56.52-.56h4Z" transform="translate(-40.61 -348.63)"></path>
  <path class="cls-8" d="M418,440.28c-1.19,0-2.38,0-3.56,0-.6,0-.8.22-.78.79.06,1.93.08,3.86.14,5.78,0,1.21.29,1.43,1.65,1.5.32,0,.69-.08.76.42s-.07.8-.8.78q-3-.06-6-.09c-.57,0-1.14.06-1.7.1-.38,0-.58-.12-.57-.53s.09-.66.53-.67h.22c1.55-.06,1.75-.21,1.79-1.81.05-2.38,0-4.76,0-7.14v-5.92a7.26,7.26,0,0,0-.06-.93c-.12-.91-.29-1.05-1.23-1.13-.26,0-.52-.07-.78-.09a.47.47,0,0,1-.47-.68.76.76,0,0,1,.57-.41c1.54,0,3.09.07,4.63.08,1.07,0,2.14-.07,3.21-.1.33,0,.62,0,.63.46s-.1.64-.53.67c-.1,0-.19.06-.28.06-1.49,0-1.62.41-1.63,1.85s-.06,3.09-.12,4.63c0,.55.16.77.73.76,2.43,0,4.85,0,7.28,0,.58,0,.73-.25.72-.77-.05-1.73-.07-3.47-.13-5.2,0-.9-.27-1.13-1.14-1.25a2.19,2.19,0,0,1-.83-.14,1,1,0,0,1-.4-.66c0-.11.31-.4.49-.4,1.52,0,3,.08,4.56.09,1.05,0,2.09-.07,3.14-.1.32,0,.68-.08.72.44s-.22.68-.66.72l-.21,0c-1.44.16-1.55.25-1.57,1.7-.05,2.85-.09,5.71-.1,8.56,0,1.69.06,3.38.09,5.06,0,1.3.28,1.59,1.6,1.61.44,0,.86,0,.86.64s-.32.58-.74.57c-2.12,0-4.23-.08-6.35-.1-.42,0-.85.11-1.27.08a.77.77,0,0,1-.57-.4c-.11-.36,0-.73.47-.77h.14c1.6-.13,1.73-.27,1.77-1.91,0-1.8.05-3.61.11-5.42,0-.55-.15-.77-.73-.75-1.21,0-2.42,0-3.64,0Z" transform="translate(-40.61 -348.63)"></path>
  <path class="cls-8" d="M279,440.28c-1.21,0-2.42,0-3.64,0-.47,0-.69.15-.68.66.06,2,.06,4,.15,6,.05,1.2.25,1.32,1.48,1.43.28,0,.7.16.8.37.27.56,0,.84-.78.82l-5.85-.09c-.57,0-1.14.06-1.71.1-.36,0-.58-.08-.59-.51s.12-.66.59-.7c1.71-.16,1.73-.17,1.89-1.9.07-.71.08-1.43.08-2.14,0-3.9-.08-7.8-.12-11.7,0-.83-.26-1.1-1.09-1.18l-.85-.08a.48.48,0,0,1-.46-.7.74.74,0,0,1,.56-.41c1.55,0,3.09.07,4.64.08,1,0,2.09-.09,3.13-.08a.76.76,0,0,1,.58.41.51.51,0,0,1-.47.71l-.21,0c-1.59.23-1.64.22-1.71,1.79s0,3.24-.06,4.86c0,.43.17.58.6.58,2.49,0,5,0,7.48,0,.19,0,.54-.29.54-.44,0-1.91-.07-3.81-.1-5.71,0-.69-.41-1-1-1a2.45,2.45,0,0,1-.83-.14,1,1,0,0,1-.44-.64c0-.13.34-.42.54-.42.83,0,1.66.06,2.5.06,1.73,0,3.47-.06,5.2-.08.34,0,.67,0,.69.48s-.22.6-.62.68c-1.74.33-1.8.34-1.81,2.16,0,4.47,0,8.94,0,13.41,0,1.17.27,1.35,1.54,1.41.29,0,.72.11.83.31.29.54,0,.9-.64.88s-1-.1-1.56-.1c-2,0-4,.06-6.06.1-.38,0-.66,0-.66-.52s.12-.7.6-.68a3.62,3.62,0,0,0,.57,0c.87-.07,1.13-.33,1.16-1.21.06-2,.08-4,.15-6.06,0-.58-.15-.81-.76-.79-1.19,0-2.38,0-3.57,0Z" transform="translate(-40.61 -348.63)"></path>
  <path class="cls-8" d="M281,369.12c-1.22.07-2.34.1-3.46.22-.22,0-.47.32-.6.56a10.61,10.61,0,0,0-.62,1.47,3.07,3.07,0,0,1-2.32,2.07,13.6,13.6,0,0,1-2.58.24,6.68,6.68,0,0,0,1.11-4.28c0-.54.28-.73.81-.74,2.35,0,4.7-.1,7.06-.12.6,0,.86-.19.94-.81.23-1.62.54-3.24.79-4.86.15-1-.28-1.64-1.29-1.67-1.26-.05-2.52.06-3.78.1l-.14,0a15.86,15.86,0,0,0,.09-2.37,14.84,14.84,0,0,0-.62-2.34c1.34,0,2.75-.31,3.95.53.41.29.56,1,.77,1.54a2.73,2.73,0,0,1,0,.86c0,1.22.36,1.57,1.6,1.58.67,0,1.34,0,2,0,1.29,0,1.78.59,1.56,1.86-.27,1.57-.57,3.14-.85,4.71-.05.26-.07.52-.11.89.49,0,.9-.06,1.31-.07l7.06-.14c.75,0,.82.12.7.89a10.49,10.49,0,0,0-.19,1.58,2.87,2.87,0,0,0,.69,2.38,5.82,5.82,0,0,1-3.86-.67,3.93,3.93,0,0,1-1-1.35,6.62,6.62,0,0,1-.33-1.22,1.08,1.08,0,0,0-1.15-.89c-.94,0-1.87,0-2.8,0-.49,0-.67.2-.74.63-.4,2.34-.83,4.68-1.21,7-.25,1.48-.51,3-.65,4.47a9.47,9.47,0,0,0,.3,2.07,31.56,31.56,0,0,1-3.3.38,1.11,1.11,0,0,1-1.22-1.34c.13-1.41.37-2.81.6-4.21.45-2.78.94-5.55,1.41-8.33C281,369.58,281,369.44,281,369.12Z" transform="translate(-40.61 -348.63)"></path>
  <path class="cls-8" d="M244,473.4c.52.78,1,1.58,1.57,2.36,1.12,1.69,2.23,3.37,3.37,5a2.84,2.84,0,0,0,1.94,1.56c.12,0,.26.39.26.6a.51.51,0,0,1-.35.4q-2.36,0-4.71,0a.9.9,0,0,1-.53-.41q-2.91-4.44-5.8-8.9c-.4-.62-.27-.84.47-.87a4,4,0,0,0,3.89-5.06,2.72,2.72,0,0,0-2.14-2.25,16.18,16.18,0,0,0-3-.16c-.14,0-.33.22-.4.38a1.66,1.66,0,0,0-.09.63q0,6.52,0,13a5.31,5.31,0,0,0,.16,1.55,1.72,1.72,0,0,0,.73.83,2,2,0,0,0,1,.15c.45,0,.57.22.56.63s-.29.48-.63.47h-7.56c-.36,0-.59-.08-.59-.51s.11-.54.51-.6c1.68-.26,1.75-.31,1.76-2,0-4.21,0-8.41,0-12.62a4.49,4.49,0,0,0,0-.64c-.17-1.47-.17-1.49-1.61-1.73-.43-.08-.64-.19-.62-.66s.37-.47.71-.47h10.56a9.71,9.71,0,0,1,1.21.06A3.58,3.58,0,0,1,248,467a4.4,4.4,0,0,1-1.42,4.77A24.5,24.5,0,0,1,244,473.4Z" transform="translate(-40.61 -348.63)"></path>
  <path class="cls-8" d="M416.11,409.5a3,3,0,0,1-4.05-2.76c-.07-.9-.3-1.13-1.2-1.16s-2-.05-3-.11c-.64,0-1,.24-1,.86-.19,3.1-.39,6.2-.54,9.3a6.37,6.37,0,0,0,.38,1.62c-.55.06-1.13.15-1.71.19s-1.29,0-1.94,0-1.08-.26-1.07-1c0-1.33,0-2.67.17-4,.2-2.07.48-4.14.72-6.21.07-.58-.15-.9-.75-.9s-1.29,0-1.94,0a1,1,0,0,0-1.07.79,4.19,4.19,0,0,1-3.68,3,9.92,9.92,0,0,1-1.36,0,6,6,0,0,0,.84-3.85c0-.72.19-.84.89-.83,2.16.05,4.31.09,6.47.12.76,0,.85-.08.64-.8-.29-1-.67-1.92-1-2.9a16.24,16.24,0,0,1-.53-2.05,2.59,2.59,0,0,1,1.41-3,11.72,11.72,0,0,1,7.19-1.19c2.09.27,2.4,1.56,2.25,3.56a3.33,3.33,0,0,1-3,3.22l-1.89.39a.74.74,0,0,0-.64,1,12.75,12.75,0,0,1,.32,1.49c.07.47.37.48.72.49l7.2.14c1.07,0,1.2.15,1.1,1.22-.06.66-.18,1.32-.18,2A7.84,7.84,0,0,0,416.11,409.5Zm-7.37-11.79c0-.21-.06-.6-.1-1-.11-.88-.46-1.28-1.23-1.42a1.66,1.66,0,0,0-2,.87,3.69,3.69,0,0,0-.24,3,18.47,18.47,0,0,0,.75,1.71c.42.9.7.92,1.52.29C408.56,400.34,408.7,399.15,408.74,397.71Z" transform="translate(-40.61 -348.63)"></path>
  <path class="cls-8" d="M278.69,394.64a7.45,7.45,0,0,1,3-.59.9.9,0,0,1,.83.9c.15,1.28.28,2.56.4,3.84.09,1,.37,1.3,1.36,1.36.49,0,1,0,1.46,0a10.85,10.85,0,0,1,1.27.21,11.18,11.18,0,0,1-.57,1.15c-.74,1.14-1.52,2.25-2.28,3.37a1.13,1.13,0,0,0-.23.66c.56-.18,1.11-.4,1.68-.53a16.32,16.32,0,0,1,3.05-.61c2-.08,3,.91,3.2,2.88.3,2.69.61,5.38,1,8.06a6.77,6.77,0,0,0,.6,1.51,6.8,6.8,0,0,1-4.06.63c-.72-.15-.95-.78-1-1.41-.21-1.7-.38-3.4-.54-5.1-.11-1.1-.17-2.21-.3-3.31a1.88,1.88,0,0,0-1.3-1.7,2.06,2.06,0,0,0-2.38.54,12.75,12.75,0,0,0-3,6.77,5.72,5.72,0,0,0,.42,3.64c.05.1-.15.48-.25.48-1.22.08-2.44.15-3.66.15-.66,0-1-.42-1-1.07a12.89,12.89,0,0,1,1.4-6.1,37.74,37.74,0,0,1,5.12-8s.07-.06.08-.1l.36-1.16a4.35,4.35,0,0,0-1.21-.32,16.82,16.82,0,0,0-1.95.39c-.83.17-1,.05-1-.82,0-1,.05-2.09,0-3.13C279,396.43,278.83,395.62,278.69,394.64Z" transform="translate(-40.61 -348.63)"></path>
  <path class="cls-8" d="M460.75,394.34c1.05-.09,2.25-.26,3.45-.26.81,0,1.11.41,1.06,1.23-.07,1.37-.21,2.74-.33,4.11,0,.13,0,.26-.05.39-.06,1.27.3,1.55,1.52,1.28,1.4-.32,2.81-.64,4.23-.82a4.83,4.83,0,0,1,3.86,1.13,3.65,3.65,0,0,1,1,1.73,16,16,0,0,1,.26,5.35c-.1,1.25-.46,2.51.11,3.84a15.42,15.42,0,0,1-4.11.25.87.87,0,0,1-.74-1c.07-1.35.13-2.7.21-4.05s.25-2.75.29-4.12a1.87,1.87,0,0,0-.94-2,3.15,3.15,0,0,0-3,.25c-1.23.72-1.56,2-1.91,3.24a34.36,34.36,0,0,0-1.18,10.54,4,4,0,0,0,.18.91,9.75,9.75,0,0,0,.37.91l-1.56.12c-.73,0-1.46.11-2.19.11s-1.08-.34-1-1.08c.18-2.48.34-5,.62-7.42a11.24,11.24,0,0,1,2.68-6.21.81.81,0,0,0,.2-.63c0-.12-.36-.22-.56-.24-.46,0-.93,0-1.4,0-.8,0-1.05-.27-1-1.07.07-1.44.23-2.87.26-4.31A14.5,14.5,0,0,0,460.75,394.34Z" transform="translate(-40.61 -348.63)"></path>
  <path class="cls-8" d="M302.23,371.64a9.31,9.31,0,0,0,.43.94,10.9,10.9,0,0,1,1.58,6,15.44,15.44,0,0,0,0,1.8c.07.93.19,1.86.29,2.89a14.14,14.14,0,0,1-4,.3c-.44-.06-.51-.42-.51-.81,0-1.05,0-2.09,0-3.14a12.91,12.91,0,0,0-1.26-5.73,13.51,13.51,0,0,1-1.43-6,5.32,5.32,0,0,1,4.16-5.28c2.23-.5,4.47-.95,6.74-1.24a2.88,2.88,0,0,1,3.48,2.87,5.18,5.18,0,0,1-.49,2.85c-.1.2-.17.4-.29.69.43,0,.77.12,1.12.13,1.27,0,2.53,0,3.8,0,.59,0,.88.2.83.81,0,.2,0,.4,0,.6a2.67,2.67,0,0,0,.85,2.56,4,4,0,0,1-3.4.06,2.32,2.32,0,0,1-1.29-2.11c-.1-.93-.25-1.07-1.19-1.13a2.42,2.42,0,0,0-2.13.76,5.58,5.58,0,0,1-3.21,1.34c-1.15.25-2.3.46-3.45.7C302.67,371.48,302.49,371.56,302.23,371.64Zm-1-3.67c.11.72.22,1.44.35,2.16.08.46.34.58.82.51,3.73-.55,5.29-4.1,5.22-6.87a1.46,1.46,0,0,0-1.6-1.51,6.13,6.13,0,0,0-2.38.7C301.78,364.07,301.34,365.93,301.24,368Z" transform="translate(-40.61 -348.63)"></path>
  <path class="cls-8" d="M324.18,439.41a9.69,9.69,0,0,1-4,8.47,11.29,11.29,0,0,1-7.38,1.89,15.37,15.37,0,0,1-3.51-.54,8.12,8.12,0,0,1-6-6.11,12.2,12.2,0,0,1,.1-6.62,9.19,9.19,0,0,1,8.24-6.45,18.38,18.38,0,0,1,5.54.21C321.72,431.24,324.21,434.52,324.18,439.41Zm-17,0c0,.41,0,.81,0,1.21a9.86,9.86,0,0,0,2,5.71c1.63,2,3.85,2.32,6.21,1.85s3.66-2.18,4.26-4.42a14.59,14.59,0,0,0,0-7.48c-.66-2.52-2-4.4-4.83-4.79a10.38,10.38,0,0,0-1.85-.07,5.28,5.28,0,0,0-4.91,3.19A10.42,10.42,0,0,0,307.14,439.41Z" transform="translate(-40.61 -348.63)"></path>
  <path class="cls-8" d="M384.26,463.83a12.3,12.3,0,0,1,6.13,1.39,8.09,8.09,0,0,1,4.14,6.16,12.35,12.35,0,0,1-.51,5.91,9.54,9.54,0,0,1-8.89,6.36,20.61,20.61,0,0,1-5-.41,8.33,8.33,0,0,1-6.64-7.7,12.3,12.3,0,0,1,.48-5.42,9,9,0,0,1,7.69-6.07C382.51,463.92,383.39,463.9,384.26,463.83ZM390.62,474l-.12,0c-.07-.87-.08-1.76-.23-2.62-.59-3.51-2.21-5.72-5.64-6.07-2.81-.29-5.4,1-6.3,3.5a13,13,0,0,0,.46,10.26c1.22,2.51,3.39,3.35,6,3.2a5.43,5.43,0,0,0,5.08-4.12A40.15,40.15,0,0,0,390.62,474Z" transform="translate(-40.61 -348.63)"></path>
  <path class="cls-8" d="M520.94,463.83a12.25,12.25,0,0,1,6.12,1.41,8.1,8.1,0,0,1,4.11,6.18,12.17,12.17,0,0,1-.66,6.24,8.81,8.81,0,0,1-5.19,5.19,13.65,13.65,0,0,1-9.57.11c-3.45-1.21-5.21-3.84-5.64-7.39a11.61,11.61,0,0,1,.64-5.89,9,9,0,0,1,7.56-5.63C519.18,463.92,520.06,463.9,520.94,463.83ZM527.15,474c-.08-.85-.09-1.71-.23-2.55-.6-3.58-2.22-5.83-5.67-6.12-3-.24-5.62,1-6.53,4.17a13.94,13.94,0,0,0,.84,9.84c1.27,2.32,3.35,3.07,5.82,2.94a5.37,5.37,0,0,0,5-3.65A12.57,12.57,0,0,0,527.15,474Z" transform="translate(-40.61 -348.63)"></path>
  <path class="cls-8" d="M520.6,444.19c0-.44,0-.69,0-.93q-.06-5.25-.13-10.49c0-1.11-.24-1.29-1.35-1.37-.42,0-1,.13-1.07-.61,0-.37.07-.59.5-.59,1.88,0,3.76,0,5.63,0,.17,0,.47.27.47.42a1,1,0,0,1-.35.64c-.14.12-.41.1-.62.12-1,.09-1.3.3-1.38,1.33-.06.71,0,1.42,0,2.14q0,7,0,14.06c0,.94-.09.9-1.05.86-1.34-.06-2-.92-2.79-1.81q-5.43-6.44-10.89-12.84a5,5,0,0,0-.38-.36c0,.35,0,.58,0,.8,0,3.33,0,6.67,0,10a12.2,12.2,0,0,0,.06,1.35c.13,1.18.32,1.34,1.52,1.4.25,0,.61,0,.71.17a1.07,1.07,0,0,1,.06.81c0,.11-.39.18-.59.18-1.71,0-3.42,0-5.13,0-.35,0-.8.23-.85-.42s.26-.73.76-.75c1.51-.08,1.62-.14,1.66-1.58.09-3,.11-6,.14-9,0-1.57,0-3.14,0-4.71,0-1.34-.26-1.56-1.59-1.65-.19,0-.44,0-.55-.1a1.25,1.25,0,0,1-.36-.7c0-.12.32-.38.5-.39,1.62,0,3.24,0,4.85,0a1.27,1.27,0,0,1,.81.46c2.46,3,4.88,6,7.34,8.93,1.11,1.33,2.28,2.62,3.42,3.92C520.09,443.73,520.28,443.89,520.6,444.19Z" transform="translate(-40.61 -348.63)"></path>
  <path class="cls-8" d="M380.77,434.78a2.6,2.6,0,0,0-.09.4c0,3.19.07,6.37.11,9.56,0,.64,0,1.28,0,1.92,0,1.4.21,1.61,1.6,1.67.4,0,.71.06.72.56s-.12.64-.66.62c-1.68,0-3.37,0-5.06,0-.36,0-.78.18-.82-.46s.28-.72.79-.73c1.35,0,1.63-.27,1.64-1.64,0-4.68,0-9.37,0-14.05a1.07,1.07,0,0,0-1-1.19,3,3,0,0,1-1-.14.94.94,0,0,1-.38-.69c0-.12.31-.39.48-.4,1.62,0,3.23,0,4.85,0a1.31,1.31,0,0,1,.79.48q5.43,6.42,10.82,12.88a3,3,0,0,1,.32.54l.23-.15c0-.23,0-.46,0-.68,0-3.24,0-6.47,0-9.71a7,7,0,0,0,0-.92c-.13-1.09-.28-1.21-1.39-1.26-.19,0-.43,0-.55-.09a1.18,1.18,0,0,1-.42-.67c0-.13.35-.42.54-.42,1.83,0,3.66,0,5.48,0a.79.79,0,0,1,.57.42.48.48,0,0,1-.47.69l-.49.08c-1.23.09-1.43.31-1.44,1.52,0,4.42-.09,8.84-.12,13.27,0,.95.08,1.9.11,2.85s-.06.79-.89.78c-1.62,0-2.4-1.14-3.29-2.18q-5.26-6.24-10.54-12.47C381.11,435.06,381,435,380.77,434.78Z" transform="translate(-40.61 -348.63)"></path>
  <path class="cls-8" d="M537.54,468.76c0,.2-.06.4-.06.6q0,5.5.11,11a.76.76,0,0,0,0,.15c.07,1.53.15,1.6,1.66,1.81.25,0,.64.13.69.3.15.4.1.79-.53.78-1.81,0-3.62,0-5.43,0-.39,0-.62-.09-.62-.55s.25-.55.63-.55.47-.05.71-.06c.78,0,1.08-.53,1.08-1.23q.08-7,.11-13.92c0-.28-.07-.56-.09-.85a.83.83,0,0,0-.81-.83,8.75,8.75,0,0,0-1.13-.15c-.43,0-.58-.27-.47-.6s.32-.48.5-.48c1.64,0,3.29-.05,4.93,0a1.44,1.44,0,0,1,.83.56c2,2.42,4,4.87,6,7.28,1.57,1.88,3.19,3.72,4.8,5.57a6.72,6.72,0,0,0,.56.51c0-.37.06-.59.06-.81,0-3.5-.07-7-.12-10.5,0-1.25-.24-1.44-1.75-1.54-.39,0-.77,0-.65-.56,0-.2.3-.5.47-.51q2.82,0,5.64,0a.53.53,0,0,1,0,1c-2,.35-2,.34-2,2.35,0,3.52-.08,7-.09,10.56,0,1.61.07,3.23.1,4.85,0,.83-.06.75-.85.76-1.84,0-2.6-1.39-3.57-2.5-2.76-3.17-5.48-6.38-8.2-9.59-.71-.83-1.38-1.7-2.06-2.55a3.43,3.43,0,0,1-.28-.49Z" transform="translate(-40.61 -348.63)"></path>
  <path class="cls-8" d="M353.59,371.61c.29,1,.49,2,.84,2.88.57,1.47,1.23,2.9,1.86,4.34.34.78.22.91-.58,1.15-1.67.5-3.34,1-5,1.63a1.57,1.57,0,0,0-1.12,1.64,1.69,1.69,0,0,1-.9,1.67c-1.28.57-2.62,1-4.11,1.6.11-.38.14-.52.19-.65a5.48,5.48,0,0,0,.23-4.15c-.2-.52-.08-.79.47-.89.81-.15,1.6-.39,2.42-.47.34,0,.7.27,1.06.38a4.11,4.11,0,0,0,1,.2,1.23,1.23,0,0,0,.57-.18c1.49-.61,1.64-.91,1.08-2.37-.46-1.23-1-2.43-1.44-3.66a12.93,12.93,0,0,1-.78-5.5,7.49,7.49,0,0,1,5.07-6.81,15.37,15.37,0,0,1,5.89-.91c2,0,2.85,1,2.95,3a6,6,0,0,1-1.7,4.93,6.18,6.18,0,0,1-3.44,1.43C356.68,371.13,355.23,371.35,353.59,371.61Zm5.7-7.47c.11-1.88-1.09-2.16-2.47-1.5a7.47,7.47,0,0,0-3.66,6.84c.19,1.28.18,1.27,1.46,1a4.72,4.72,0,0,0,3.57-2.3A10.17,10.17,0,0,0,359.29,364.14Z" transform="translate(-40.61 -348.63)"></path>
  <path class="cls-8" d="M239.85,383.33c-1.18.08-2.45.18-3.73.24-.58,0-.82-.29-.82-.88,0-1.55-.05-3.1-.06-4.66a10.74,10.74,0,0,0-1.16-4.14,14,14,0,0,1-1.44-6.3,5.06,5.06,0,0,1,3.84-4.93c2.37-.55,4.78-1,7.19-1.33,2.19-.31,3.63,1.17,3.45,3.4a7,7,0,0,1-1.18,3.42,4.54,4.54,0,0,1-2.77,2.06c-1.59.39-3.2.72-4.8,1.08-.23,0-.46.12-.78.21.27.63.47,1.22.76,1.76a11,11,0,0,1,1.18,5.07c0,.67,0,1.34,0,2C239.62,381.27,239.74,382.21,239.85,383.33Zm-3.37-15.85.51,2.59c.08.42.31.54.71.46a5.87,5.87,0,0,0,3.9-2.31,7.36,7.36,0,0,0,1.32-3.45c.25-2.11-.86-3-2.91-2.35A5.41,5.41,0,0,0,236.48,367.48Z" transform="translate(-40.61 -348.63)"></path>
  <path class="cls-8" d="M280.56,475.6c1.17,0,2.34,0,3.5,0,.22,0,.43.23.64.35-.15.2-.26.53-.45.59a1,1,0,0,0-.77,1.13c0,1.26,0,2.52,0,3.78,0,.34,0,.59-.36.73-4.09,1.46-8.25,2.13-12.52.89a9.48,9.48,0,0,1-6.81-9.66c.19-5,3.43-8.63,9-9.37a21.68,21.68,0,0,1,9.66.84c.56.18.8.4.66,1.07-.23,1-.29,2.12-.47,3.17,0,.2-.32.51-.47.5a1.06,1.06,0,0,1-.64-.44,1,1,0,0,1-.08-.62,2.25,2.25,0,0,0-1.33-2.24c-2.61-1.55-7.67-1.6-10.22,1.34a8.05,8.05,0,0,0-1.92,5,9.45,9.45,0,0,0,2.16,7.05,7.42,7.42,0,0,0,8.85,1.79.89.89,0,0,0,.41-.65c0-1,0-2,0-3.07a.9.9,0,0,0-1-1,12.1,12.1,0,0,1-1.7-.18.68.68,0,0,1-.44-.52c0-.18.29-.5.46-.5,1.24-.05,2.48,0,3.71,0Z" transform="translate(-40.61 -348.63)"></path>
  <path class="cls-8" d="M550,417.34c-.61,0-1.22.08-1.83.1s-1.38.05-2.07,0c-.9,0-1.29-.57-1-1.44a9.26,9.26,0,0,1,.6-1.47c1.46-3.07,2.94-6.13,4.39-9.21.63-1.32.13-2.06-1.35-2-.6,0-1.19.11-1.79.13-.85,0-1.18-.35-.89-1.17.39-1.13.91-2.22,1.35-3.33a5.9,5.9,0,0,0,.41-1.46,1.1,1.1,0,0,0-1-1.31c-1.57-.28-2.81,0-3.26,1.83a4.11,4.11,0,0,1-5,3.24l.42-3.46c.06-.42.11-.85.65-1,2.85-.54,5.64-1.47,8.6-1.32a16.28,16.28,0,0,1,2.31.23,1.82,1.82,0,0,1,1.62,2.57c-.32,1.13-.8,2.21-1.21,3.31-.06.17-.13.33-.18.5-.21.79.08,1.19.89,1.25s1.56.09,2.32.2c1.06.16,1.36.78.92,1.78-.09.2-.2.4-.29.59L550.13,415c-.35.7-.7,1.38,0,2.14Z" transform="translate(-40.61 -348.63)"></path>
  <path class="cls-8" d="M447.13,437.4c0-1.57,0-3.14,0-4.71,0-.87-.26-1.14-1.12-1.26l-.85-.1a.45.45,0,0,1-.43-.65.74.74,0,0,1,.53-.45c1.78,0,3.56,0,5.34,0,.35,0,.59.06.6.5s-.16.56-.58.62c-1.3.17-1.53.44-1.56,1.73-.09,3.25-.2,6.51-.26,9.77-.08,3.95-1.82,6.09-5.72,6.78a11.84,11.84,0,0,1-6.93-.69,4.87,4.87,0,0,1-3.18-4.72c0-2.67,0-5.33,0-8,0-1.16-.08-2.33-.12-3.49,0-.92-.32-1.22-1.25-1.3-.21,0-.49,0-.62-.09a1.15,1.15,0,0,1-.37-.7c0-.12.32-.39.49-.39,1.4,0,2.8.08,4.21.08,1.14,0,2.28-.07,3.42-.1.33,0,.61,0,.62.47s-.12.63-.56.63a4.31,4.31,0,0,0-.71.09,1.08,1.08,0,0,0-1.06,1.12c0,.21,0,.43-.06.64,0,3-.11,6-.14,9a10.19,10.19,0,0,0,.16,1.91c.33,2,1.57,3.12,3.87,3.35a10.31,10.31,0,0,0,3.32-.24,3.54,3.54,0,0,0,2.81-3.29,7.64,7.64,0,0,0,.12-1.06c0-1.81,0-3.62,0-5.42Z" transform="translate(-40.61 -348.63)"></path>
  <path class="cls-8" d="M332.83,437.65c0,3.07,0,6.13,0,9.2,0,1.13.25,1.36,1.37,1.47a8,8,0,0,0,.85,0c.55,0,.56.42.47.75a.73.73,0,0,1-.54.42c-2.52,0-5,0-7.55,0-.4,0-1,.24-1-.54,0-.44.14-.67.62-.66a4,4,0,0,0,.84-.1.81.81,0,0,0,.71-.85c0-.95.12-1.89.12-2.84,0-3.21,0-6.43,0-9.64,0-.8-.06-1.61-.12-2.41s-.27-1-1.12-1.07c-.21,0-.49,0-.62-.08a1.21,1.21,0,0,1-.38-.71c0-.12.31-.4.48-.4.71,0,1.43.07,2.14.07,2.52,0,5-.09,7.56-.08a12.13,12.13,0,0,1,2.47.27,3.64,3.64,0,0,1,3,3.64c.24,4.34-3.85,6.95-7.61,6.12-.29-.07-.52-.49-.72-.77,0-.06.13-.31.25-.41s.23,0,.35,0c2.35.44,4.18-1.47,3.69-4.64-.44-2.77-3-3.14-4.93-2.64-.16,0-.33.44-.33.68,0,1.73,0,3.47,0,5.2Z" transform="translate(-40.61 -348.63)"></path>
  <path class="cls-8" d="M238.62,444.14c0,1,0,2,0,3,0,.49.15.77.69.75l5.71-.15a.79.79,0,0,0,.86-.75c.09-.57.26-1.11.36-1.67s.39-.61.83-.56.36.46.34.77c-.08,1.07-.2,2.13-.23,3.2,0,.52-.19.72-.7.72-1.33,0-2.66,0-4,0l-8.77.06a1.87,1.87,0,0,1-.61-.22c.1-.22.15-.57.3-.63,1-.39,1.12-1.19,1.12-2.09,0-4.56,0-9.13,0-13.69,0-1.22-.17-1.34-1.41-1.48-.37,0-.85,0-.88-.59,0-.39.09-.64.55-.62.71.05,1.42.11,2.14.11l10.62-.11c1.68,0,1.68,0,1.45,1.63-.09.68-.17,1.37-.22,2.06,0,.44-.27.63-.64.51a.79.79,0,0,1-.45-.54c-.14-1.8-.26-1.95-2.11-2-1.42,0-2.85,0-4.27,0-.49,0-.68.2-.69.68,0,1.83-.08,3.66-.16,5.49,0,.57.21.76.75.76,1.24,0,2.48,0,3.71,0,.67,0,1-.26,1.06-1a1.77,1.77,0,0,1,.14-.76.89.89,0,0,1,.56-.44c.16,0,.49.27.49.42,0,1.73,0,3.47,0,5.21,0,.15-.35.39-.56.41a.67.67,0,0,1-.48-.41c-.12-.4-.05-.87-.2-1.26s-.42-.65-.67-.67c-1.32-.09-2.65-.07-4-.1-.61,0-.77.34-.77.86,0,1,0,2,0,3.06Z" transform="translate(-40.61 -348.63)"></path>
  <path class="cls-8" d="M481.07,449.45c-.25-.95-.2-1.11.69-1.2s1.2-.75,1.49-1.43c1.28-3,2.57-6.08,3.83-9.13,1-2.35,1.93-4.71,2.88-7.06a.8.8,0,0,1,.85-.59c1.37,0,1.39,0,1.92,1.22,1.07,2.51,2.11,5,3.18,7.55,1.15,2.72,2.32,5.42,3.46,8.13a1.82,1.82,0,0,0,1.73,1.33c.34,0,.64.08.65.57s-.15.69-.74.68c-2.45,0-4.89,0-7.34,0-.34,0-.69.12-.72-.41s0-.76.61-.8c1.9-.12,1.7-.38,1.14-1.89-.27-.74-.59-1.45-.86-2.19a.84.84,0,0,0-.89-.64c-2,0-3.95,0-5.92,0a1,1,0,0,0-.79.51c-.41,1-.75,2-1.06,3-.19.65,0,.92.7,1a7.89,7.89,0,0,0,.85.09c.62,0,.62.45.58.9s-.42.3-.7.3h-5.54Zm9-14.32-.23,0L487.05,442h5.88Z" transform="translate(-40.61 -348.63)"></path>
  <path class="cls-8" d="M354.58,449.47c-.24-1-.21-1.13.68-1.2s1.28-.79,1.59-1.51q2.1-5,4.16-9.93c.77-1.85,1.52-3.69,2.27-5.54.51-1.27.51-1.25,1.89-1.25a.86.86,0,0,1,.9.62c1,2.44,2,4.87,3.05,7.3,1.25,3,2.52,5.9,3.76,8.86a1.9,1.9,0,0,0,1.8,1.45c.58,0,.59.42.56.85s-.4.39-.73.39q-3.6,0-7.2,0c-.37,0-.72.14-.76-.43s.13-.71.66-.77c1.65-.18,1.67-.24,1.09-1.78-.29-.8-.59-1.61-1-2.38a1,1,0,0,0-.7-.52c-2.05,0-4.09,0-6.14,0a1,1,0,0,0-.7.53c-.39.94-.71,1.91-1,2.88-.24.75,0,1.06.77,1.17l.77.08c.55.05.53.44.52.84s-.34.37-.66.36C358.33,449.46,356.48,449.47,354.58,449.47ZM366.5,442c-1-2.38-1.92-4.63-2.86-6.89l-.21,0c-.93,2.25-1.85,4.51-2.81,6.87Z" transform="translate(-40.61 -348.63)"></path>
  <path class="cls-8" d="M337.49,463.9a11.6,11.6,0,0,1,4.48.71.84.84,0,0,1,.65,1.12,24.29,24.29,0,0,0-.34,2.83c0,.42-.2.59-.62.58s-.64-.14-.61-.58c0-.07,0-.15,0-.22,0-1.72-.3-2.15-1.94-2.69a5.13,5.13,0,0,0-4.72.44,2.91,2.91,0,0,0-1.23,3.06,2.46,2.46,0,0,0,2,2.14c1.53.34,3.07.59,4.61.89a5,5,0,0,1,2.74,1.27,5.6,5.6,0,0,1,.8,6,6.67,6.67,0,0,1-4.68,3.85,12.92,12.92,0,0,1-8.51-.68.75.75,0,0,1-.54-1c.16-1.15.22-2.32.29-3.48,0-.42.15-.59.59-.59s.6.08.63.55c.17,2.55.8,3.27,3.31,3.92a5.79,5.79,0,0,0,3.3-.06,3.51,3.51,0,0,0,2.5-2.6,2.84,2.84,0,0,0-2.1-3.7c-1.23-.33-2.52-.49-3.77-.74-.54-.11-1.07-.25-1.59-.41a4.14,4.14,0,0,1-3-3.72,5.92,5.92,0,0,1,5.3-6.8c.4-.05.8-.11,1.2-.14S337.09,463.9,337.49,463.9Z" transform="translate(-40.61 -348.63)"></path>
  <path class="cls-8" d="M490,463.9a12,12,0,0,1,4.77.75c.4.15.65.36.58.84-.15,1-.28,2.07-.39,3.11,0,.38-.2.54-.59.54s-.55-.19-.56-.56a3.85,3.85,0,0,1-.07-.57c.16-1.28-.62-1.87-1.65-2.24-1.81-.66-3.59-.79-5.21.48a2.88,2.88,0,0,0-1,2.94,2.53,2.53,0,0,0,2.07,2.11c1.44.31,2.89.54,4.34.83,3.94.8,5.52,4.33,3.52,7.87a6.77,6.77,0,0,1-4.44,3.32,13,13,0,0,1-8.38-.64.86.86,0,0,1-.61-1.13c.16-1.05.17-2.13.24-3.2,0-.4.07-.76.63-.75.37,0,.59.11.57.53,0,.21,0,.43,0,.64a2.54,2.54,0,0,0,1.46,2.56,6.43,6.43,0,0,0,5.15.69,3.54,3.54,0,0,0,2.56-4.08,2.57,2.57,0,0,0-2.12-2.23c-1.22-.3-2.46-.49-3.7-.73a5.59,5.59,0,0,1-.56-.12c-4.24-1-5.62-5.65-2.65-8.89a7.13,7.13,0,0,1,5-2.07C489.32,463.87,489.72,463.9,490,463.9Z" transform="translate(-40.61 -348.63)"></path>
  <path class="cls-8" d="M470.78,483.68a11.91,11.91,0,0,1-5.2-1,.8.8,0,0,1-.56-1c.15-.91.17-1.84.24-2.76a2.42,2.42,0,0,1,.12-.91.91.91,0,0,1,.67-.31c.14,0,.28.27.42.43s0,0,0,.07c.23,2.55.91,3.37,3.4,3.94a4.85,4.85,0,0,0,5-1.16,3.11,3.11,0,0,0-1.37-5.23c-1.34-.37-2.74-.55-4.12-.81-3-.55-4-2.18-4.2-4.23a5.7,5.7,0,0,1,3.27-6,12.25,12.25,0,0,1,9.18.07.92.92,0,0,1,.42.75c-.07,1-.24,2.07-.36,3.11,0,.38-.2.54-.59.54s-.55-.19-.56-.57a3.68,3.68,0,0,1-.06-.56c.17-1.33-.69-1.9-1.73-2.27a5.09,5.09,0,0,0-5.08.46,2.86,2.86,0,0,0-1.08,3,2.49,2.49,0,0,0,2.06,2.11c1.44.31,2.89.54,4.34.83,4,.82,5.6,4.61,3.37,8.11a7.68,7.68,0,0,1-6.33,3.43C471.59,483.71,471.18,483.68,470.78,483.68Z" transform="translate(-40.61 -348.63)"></path>
  <path class="cls-8" d="M364.94,483.69a12.78,12.78,0,0,1-6.5-1.33,9.21,9.21,0,0,1-5-7.95c-.45-6.12,4-9.83,9-10.39a20.28,20.28,0,0,1,8.65.87c.61.19.74.46.61,1.1-.21,1-.26,2-.38,3-.05.38-.09.83-.64.73a.83.83,0,0,1-.52-.47,2.72,2.72,0,0,1-.1-1,2,2,0,0,0-1.17-1.8c-3.54-2.26-8.91-.84-10.57,2.86-1.54,3.44-.89,8.65,2.48,11.09a8.41,8.41,0,0,0,6.25,1.42,31.16,31.16,0,0,0,4-1.09,3.68,3.68,0,0,1,.58-.05,3.93,3.93,0,0,1-.06.6,2.05,2.05,0,0,1-1.3,1.39A12.47,12.47,0,0,1,364.94,483.69Z" transform="translate(-40.61 -348.63)"></path>
  <path class="cls-8" d="M310.21,464.21H325c.81,0,1.62,0,2.42-.06.51,0,.6.24.56.68-.11,1.08-.21,2.17-.26,3.26,0,.47-.21.62-.65.62s-.57-.2-.58-.62-.08-.94-.1-1.41a.69.69,0,0,0-.75-.7c-1.33-.07-2.66-.11-4-.16-.56,0-.66.34-.65.8q0,6.14,0,12.27c0,.71,0,1.43,0,2.14s.28,1,1.13,1.15c.31,0,.61.12.92.12s.57.28.46.61a.76.76,0,0,1-.52.46q-4.06,0-8.13,0c-.18,0-.44-.28-.5-.48s.06-.55.48-.59c2-.22,2-.24,2.07-2.29,0-4.4.09-8.8.13-13.2,0-1,0-1-1-1-1.23,0-2.47.09-3.7.14-.5,0-.8.23-.81.78s-.12,1-.14,1.48-.3.54-.62.46-.55-.27-.56-.43C310.19,466.93,310.21,465.61,310.21,464.21Z" transform="translate(-40.61 -348.63)"></path>
  <path class="cls-8" d="M259.74,439.81v6.71c0,1.54.25,1.78,1.77,1.81.51,0,.83.09.79.7,0,.42-.19.51-.58.5-2.42,0-4.85-.06-7.27-.09a2.81,2.81,0,0,1-.64.05c-.22-.06-.6-.25-.59-.34a1.64,1.64,0,0,1,.38-.71c.07-.08.27-.07.41-.09,1.53-.19,1.63-.32,1.65-1.88,0-4.52.1-9,.14-13.56,0-1-.05-1-1-1-1.16,0-2.33.06-3.49.12-.66,0-1.07.29-1,1.05,0,.4-.11.8-.13,1.2s-.09.58-.52.59-.6-.17-.61-.59c0-1.14-.06-2.28-.12-3.42,0-.53.23-.66.69-.64,2,.08,3.9.19,5.85.18,3.26,0,6.51-.07,9.77-.16,1.67,0,1.62,0,1.4,1.37a25.62,25.62,0,0,0-.18,2.63c0,.39-.09.63-.55.63s-.66-.18-.66-.63,0-.86-.06-1.29-.28-.85-.83-.87c-1.33-.07-2.66-.13-4-.17-.59,0-.6.43-.6.85v7.07Z" transform="translate(-40.61 -348.63)"></path>
  <path class="cls-8" d="M255,473.7c0-2.42,0-4.85,0-7.27a.92.92,0,0,0-1-1.06c-.31,0-.62-.11-.92-.11s-.59-.23-.49-.58.32-.49.5-.49q4,0,8.06,0a.53.53,0,0,1,0,1c-2,.32-2,.31-2.05,2.39,0,4,0,8,0,12.06q0,.39,0,.78c.11,1.56.26,1.73,1.81,1.85.41,0,.75,0,.72.6s-.39.5-.74.5h-7.56c-.35,0-.73.08-.77-.48s.27-.63.71-.63c.25,0,.51-.09.77-.1.7,0,.95-.45.95-1.09V473.7Z" transform="translate(-40.61 -348.63)"></path>
  <path class="cls-8" d="M347.54,430.21h4.28c.33,0,.8-.2.86.44s-.3.65-.73.72c-1.79.28-1.8.28-1.81,2.14q0,6.14,0,12.27a7.6,7.6,0,0,0,.05,1.07c.15,1.3.33,1.45,1.67,1.49.37,0,.79-.06.83.52s-.07.73-.61.69c-.78-.06-1.57-.12-2.35-.11-1.78,0-3.56.07-5.34.11-.39,0-.77.05-.77-.55s.32-.65.78-.67c1.49-.05,1.64-.15,1.66-1.65.06-4.3.08-8.6.11-12.91a9.69,9.69,0,0,0-.09-1.2c-.1-1-.25-1.1-1.24-1.16-.24,0-.47-.06-.71-.07a.48.48,0,0,1-.47-.69.79.79,0,0,1,.56-.43C345.31,430.18,346.43,430.2,347.54,430.21Z" transform="translate(-40.61 -348.63)"></path>
  <path class="cls-8" d="M294.24,439.66c0-2.4,0-4.8,0-7.2,0-.79-.47-1-1.14-1-.28,0-.57-.06-.85-.08a.48.48,0,0,1-.45-.7.77.77,0,0,1,.58-.41c1.9,0,3.8.07,5.7.08.74,0,1.47-.09,2.21-.07.18,0,.45.26.52.45s0,.61-.45.64c-.19,0-.37.07-.56.08-1.26.13-1.46.26-1.47,1.51,0,4.52,0,9,0,13.55,0,.12,0,.24,0,.36.18,1.35.31,1.45,1.71,1.54a1,1,0,0,1,.75.41c.22.56,0,.78-.69.77l-5.91-.09c-.62,0-1.23.06-1.85.1-.37,0-.58-.11-.57-.53s.08-.67.53-.67c2.27,0,1.88-.54,2-2.2.11-2.16,0-4.32,0-6.49Z" transform="translate(-40.61 -348.63)"></path>
  <path class="cls-8" d="M503.44,483.41h-3.78c-.38,0-.72,0-.73-.53s.28-.58.68-.58l.28,0c1.25-.17,1.46-.37,1.47-1.63q0-7,0-14c0-.91-.18-1.1-1.1-1.24a6,6,0,0,0-.84-.11c-.43,0-.59-.26-.48-.59s.33-.48.51-.48q4,0,7.92,0a.72.72,0,0,1,.46.51.71.71,0,0,1-.43.53c-1.85.23-2,0-2,2.29,0,3.59-.07,7.17-.09,10.76,0,.9.06,1.81.11,2.71s.24,1.08,1.15,1.22a3.32,3.32,0,0,0,.77.1c.43,0,.59.25.48.59s-.32.48-.5.48C506.05,483.42,504.74,483.41,503.44,483.41Z" transform="translate(-40.61 -348.63)"></path>
  <path class="cls-8" d="M455.84,473.68v-7c0-1-.15-1.17-1.16-1.33a5.2,5.2,0,0,0-.78-.1c-.42,0-.59-.24-.49-.59s.33-.48.51-.48q4,0,7.93,0c.16,0,.45.32.45.5a.69.69,0,0,1-.43.53c-1.82.24-2,0-2,2.3,0,3.54-.08,7.09-.09,10.63,0,.93.06,1.86.1,2.78s.24,1.13,1.18,1.28a2.7,2.7,0,0,1,.77.12c.2.1.45.35.44.53s-.29.51-.45.51c-2.64,0-5.29,0-7.93,0-.18,0-.45-.28-.51-.48s.07-.54.48-.6c1.92-.25,1.92-.26,1.93-2.19,0-2.14,0-4.28,0-6.42Z" transform="translate(-40.61 -348.63)"></path>
</svg>
